<mxfile host="app.diagrams.net" modified="2024-04-03T03:29:02.600Z" agent="Mozilla/5.0 (Macintosh; Intel Mac OS X 10_15_7) AppleWebKit/537.36 (KHTML, like Gecko) Chrome/122.0.0.0 Safari/537.36" etag="5Q10DN12MxGxSTY7vDKl" version="24.2.1" type="github">
  <diagram name="Page-1" id="dRHMy88i5rT5jrEu6wN5">
    <mxGraphModel dx="1026" dy="650" grid="1" gridSize="10" guides="1" tooltips="1" connect="1" arrows="1" fold="1" page="1" pageScale="1" pageWidth="850" pageHeight="1100" math="0" shadow="0">
      <root>
        <mxCell id="0" />
        <mxCell id="1" parent="0" />
        <mxCell id="3gsd5YJ1YoRaERE2sFgi-4" value="" style="edgeStyle=orthogonalEdgeStyle;rounded=0;orthogonalLoop=1;jettySize=auto;html=1;" edge="1" parent="1" source="3gsd5YJ1YoRaERE2sFgi-2" target="3gsd5YJ1YoRaERE2sFgi-3">
          <mxGeometry relative="1" as="geometry" />
        </mxCell>
        <mxCell id="3gsd5YJ1YoRaERE2sFgi-9" value="execute start method" style="edgeLabel;html=1;align=center;verticalAlign=middle;resizable=0;points=[];" vertex="1" connectable="0" parent="3gsd5YJ1YoRaERE2sFgi-4">
          <mxGeometry x="-0.0333" y="1" relative="1" as="geometry">
            <mxPoint y="1" as="offset" />
          </mxGeometry>
        </mxCell>
        <mxCell id="3gsd5YJ1YoRaERE2sFgi-2" value="create" style="text;html=1;align=center;verticalAlign=middle;resizable=0;points=[];autosize=1;strokeColor=none;fillColor=none;" vertex="1" parent="1">
          <mxGeometry x="50" y="240" width="60" height="30" as="geometry" />
        </mxCell>
        <mxCell id="3gsd5YJ1YoRaERE2sFgi-6" value="" style="edgeStyle=orthogonalEdgeStyle;rounded=0;orthogonalLoop=1;jettySize=auto;html=1;" edge="1" parent="1" source="3gsd5YJ1YoRaERE2sFgi-3" target="3gsd5YJ1YoRaERE2sFgi-5">
          <mxGeometry relative="1" as="geometry" />
        </mxCell>
        <mxCell id="3gsd5YJ1YoRaERE2sFgi-10" value="execute run method" style="edgeLabel;html=1;align=center;verticalAlign=middle;resizable=0;points=[];" vertex="1" connectable="0" parent="3gsd5YJ1YoRaERE2sFgi-6">
          <mxGeometry x="-0.2" y="-2" relative="1" as="geometry">
            <mxPoint x="4" y="-2" as="offset" />
          </mxGeometry>
        </mxCell>
        <mxCell id="3gsd5YJ1YoRaERE2sFgi-3" value="就绪(runnable)" style="text;html=1;align=center;verticalAlign=middle;resizable=0;points=[];autosize=1;strokeColor=none;fillColor=none;" vertex="1" parent="1">
          <mxGeometry x="300" y="240" width="100" height="30" as="geometry" />
        </mxCell>
        <mxCell id="3gsd5YJ1YoRaERE2sFgi-8" value="" style="edgeStyle=orthogonalEdgeStyle;rounded=0;orthogonalLoop=1;jettySize=auto;html=1;" edge="1" parent="1" source="3gsd5YJ1YoRaERE2sFgi-5" target="3gsd5YJ1YoRaERE2sFgi-7">
          <mxGeometry relative="1" as="geometry" />
        </mxCell>
        <mxCell id="3gsd5YJ1YoRaERE2sFgi-5" value="running" style="text;html=1;align=center;verticalAlign=middle;resizable=0;points=[];autosize=1;strokeColor=none;fillColor=none;" vertex="1" parent="1">
          <mxGeometry x="560" y="240" width="60" height="30" as="geometry" />
        </mxCell>
        <mxCell id="3gsd5YJ1YoRaERE2sFgi-7" value="dead" style="text;html=1;align=center;verticalAlign=middle;resizable=0;points=[];autosize=1;strokeColor=none;fillColor=none;" vertex="1" parent="1">
          <mxGeometry x="670" y="240" width="50" height="30" as="geometry" />
        </mxCell>
        <mxCell id="3gsd5YJ1YoRaERE2sFgi-11" value="block" style="text;html=1;align=center;verticalAlign=middle;resizable=0;points=[];autosize=1;strokeColor=none;fillColor=none;" vertex="1" parent="1">
          <mxGeometry x="450" y="180" width="50" height="30" as="geometry" />
        </mxCell>
        <mxCell id="3gsd5YJ1YoRaERE2sFgi-12" value="" style="endArrow=classic;html=1;rounded=0;" edge="1" parent="1" target="3gsd5YJ1YoRaERE2sFgi-11">
          <mxGeometry width="50" height="50" relative="1" as="geometry">
            <mxPoint x="590" y="250" as="sourcePoint" />
            <mxPoint x="440" y="205" as="targetPoint" />
          </mxGeometry>
        </mxCell>
        <mxCell id="3gsd5YJ1YoRaERE2sFgi-13" value="" style="endArrow=classic;html=1;rounded=0;" edge="1" parent="1" source="3gsd5YJ1YoRaERE2sFgi-11" target="3gsd5YJ1YoRaERE2sFgi-3">
          <mxGeometry width="50" height="50" relative="1" as="geometry">
            <mxPoint x="355" y="229" as="sourcePoint" />
            <mxPoint x="190" y="190" as="targetPoint" />
          </mxGeometry>
        </mxCell>
      </root>
    </mxGraphModel>
  </diagram>
</mxfile>
